<svg width="22" height="20" viewBox="0 0 22 20" xmlns="http://www.w3.org/2000/svg"><title>ask</title><path d="M19.787.776H2.054c-.7 0-1.267.567-1.267 1.267V14.71c0 .7.567 1.267 1.267 1.267h3.814v3.8l5.067-3.8h8.852c.7 0 1.267-.567 1.267-1.267V2.042c0-.699-.567-1.266-1.267-1.266zm-8.37 12.778a.948.948 0 1 1 0-1.896.948.948 0 0 1 0 1.896zm2.243-5.32l-1.441 1.434a.633.633 0 0 0-.176.436l.005.543h-1.263l-.004-.803c0-.336.134-.64.348-.867l1.641-1.64c.335-.31.541-.746.541-1.262 0-1.046-.848-1.372-1.893-1.372-1.046 0-1.893.327-1.893 1.372 0 .178.044.375.09.532l-.002.001a.626.626 0 0 1 .027.174.635.635 0 1 1-1.238.193l-.003.001c-.007-.021-.011-.044-.017-.065a3.035 3.035 0 0 1-.118-.835c0-1.743 1.413-2.634 3.155-2.634 1.743 0 3.155.892 3.155 2.634a2.942 2.942 0 0 1-.914 2.158z" fill-rule="nonzero" fill="#FFF"/></svg>