<svg width="38" height="32" viewBox="0 0 38 32" xmlns="http://www.w3.org/2000/svg"><title>返回icon</title><path d="M16 0c.552 0 1.024.195 1.414.583.39.388.586.858.586 1.407 0 .56-.198 1.032-.594 1.416L6.828 13.933H36a1.93 1.93 0 0 1 1.414.584c.39.388.586.857.586 1.407s-.196 1.019-.586 1.407c-.39.388-.862.583-1.414.583H6.828l10.578 10.528c.396.384.594.856.594 1.415 0 .55-.196 1.02-.586 1.407a1.93 1.93 0 0 1-1.414.584 1.937 1.937 0 0 1-1.422-.576l-14-13.933A1.983 1.983 0 0 1 0 15.924c0-.54.192-1.011.578-1.415l14-13.934A1.97 1.97 0 0 1 16 0" fill="#FFF" fill-rule="evenodd"/></svg>