<svg width="20" height="21" viewBox="0 0 20 21" xmlns="http://www.w3.org/2000/svg"><title>hotel</title><g fill-rule="nonzero" fill="#FFF"><path d="M2.933 2.776h2v2.5h-2zM6.183 2.776h2v2.5h-2zM6.183 6.526h2v2.5h-2zM2.933 10.276h2v2.5h-2zM6.183 10.276h2v2.5h-2zM9.433 2.776h2v2.5h-2z"/><path d="M9.433 7.776v10h-2v-3.75h-4.5v3.75h-1.25V1.526h11.25v5.607l1.25-.357v-6.5H.433v18.75h9v1.25h10v-12.5h-10zm1.25 1.25h2v2.5h-2v-2.5zm3.75 10h-3.75v-5h3.75v5zm1-7.5h-2v-2.5h2v2.5zm2.75 3.75h-2v-2.5h2v2.5zm0-3.75h-2v-2.5h2v2.5z"/></g></svg>