<svg width="101" height="30" viewBox="0 0 101 30" xmlns="http://www.w3.org/2000/svg"><title>logo</title><g fill-rule="nonzero" fill="none"><g fill="#FFF"><path d="M91.097 11.671l-2.613-1.57-.604.209h-4.287c.212-.598.423-1.197.604-1.825h6.899V4.386h-5.903c.233-1.379.414-2.909.414-2.909L81.419.766c-.241 2.334-.664 4.847-1.268 6.912V5.434h-3.139V1.122L72.786.766v4.668h-3.26v4.1h1.932c-.121 6.014-.423 12.538-3.411 16.817 1.117.658 2.354 1.825 3.049 2.813a17.608 17.608 0 0 0 1.811-3.411c.483 1.017.785 2.424.846 3.471 3.29.09 4.11-.385 4.95-1.586 1.148-1.642 1.359-14.004 1.359-14.004l.06-1.344-4.769-.003c.061-.928.09-1.855.121-2.753h4.045c-.272.598-.513 1.137-.815 1.616.724.359 1.751.958 2.566 1.526v1.377h4.198l-.619.946-1.223.002v2.791h-3.09v3.86h3.09v3.262c0 .329-.121.389-.513.419-.362 0-1.548 0-2.574-.06.513 1.137.996 2.783 1.117 3.95 5.162 0 6.046-.838 6.046-4.219v-3.352h3.396v-3.86h-3.396v-.718l3.395-5.403zm-15.05 4.535c-.181 5.985-.423 8.199-.815 8.768-.241.389-.483.479-.815.479-.362 0-.815 0-1.359-.06 1.087-2.843 1.691-6.014 1.992-9.187h.997z"/><path d="M69.813 11.854c-1.026-.898-3.169-1.945-4.769-2.544l-2.415 3.202c1.63.718 3.683 1.945 4.619 2.843l2.565-3.501zM70.525 3.784c-1.057-.927-3.2-2.035-4.83-2.663L63.25 4.293c1.63.748 3.743 2.035 4.679 2.962l2.596-3.471zM69.813 19.078l-3.562-2.154c-1.086 3.651-2.534 7.451-3.59 9.875l3.911 2.013s.185-.444.343-.876c.906-2.364 1.963-5.566 2.898-8.858z"/></g><path d="M44.95 8.218a647.593 647.593 0 0 1-4.674-.289c-.684 2.402-2.675 4.294-8.25 4.821.815.839 1.873 2.457 2.235 3.506 6.306-.972 9.473-4.211 10.689-8.038zM60.494 11.712h-6.971c-.967 0-1.147-.09-1.147-.929l-.004-2.578-4.346-.224v3.36c0 3.266.907 4.345 4.833 4.345h7.122l.513-3.974zM33.094 3.612h26.333V7.17H33.094z" fill="#FFF"/><path fill="#FFF" d="M48.751 4.324h-4.982V.765l4.982.356zM33.094 6.459h4.27v3.558h-4.27zM55.156 6.459h4.27v3.558h-4.27zM33.094 16.795v4.015h21.5c-.367 3.598-1.626 3.947-2.556 3.947-.817 0-2.482 0-4.298-.15.878 1.291 1.491 3.295 1.582 4.617 5.796 0 9.785-.774 10.105-12.429H33.094z"/><path d="M42.31 13.682c0 8.434-4.329 11.019-10.284 11.918.876.869 2.073 2.524 2.466 3.633 7.522-1.494 12.551-5.432 12.904-15.288M14.234.765C6.373.765 0 7.138 0 14.999s6.373 14.234 14.234 14.234 14.234-6.373 14.234-14.234S22.095.765 14.234.765zm0 22.829a8.595 8.595 0 1 1 0-17.19 8.595 8.595 0 1 1 0 17.19z" fill="#FFF"/><path d="M27.589 28.729l-13.043-7.474a.275.275 0 0 1-.058-.433l5.569-5.569a.275.275 0 0 1 .433.058l7.474 13.043c.14.243-.132.515-.375.375z" fill="#AC162C"/><g fill="#FFF"><path d="M97.402 1.55c-1.71 0-3.1 1.353-3.1 3.014 0 1.663 1.391 3.015 3.1 3.015 1.71 0 3.101-1.353 3.101-3.015 0-1.661-1.392-3.014-3.1-3.014zm0 5.405c-1.356 0-2.46-1.072-2.46-2.39 0-1.32 1.104-2.392 2.46-2.392 1.357 0 2.46 1.072 2.46 2.391 0 1.32-1.104 2.391-2.46 2.391z"/><path d="M98.196 4.644V4.64c.32-.145.507-.453.507-.73 0-.518-.34-.91-1.172-.91H96.26v3.13h.66V4.924h.582c.333 0 .49.206.511.445.042.413.084.611.163.764h.69a2.996 2.996 0 0 1-.213-.836c-.036-.345-.19-.547-.456-.652zm-.723-.287h-.553V3.56h.545c.4 0 .577.153.577.392 0 .235-.19.405-.57.405z"/></g></g></svg>