<svg width="14" height="17" viewBox="0 0 14 17" xmlns="http://www.w3.org/2000/svg"><title>验证码icon</title><path d="M10.698 6.786V3.89a3.768 3.768 0 0 0-7.537 0v3.781a59.37 59.37 0 0 0 0 .902h.887a46.592 46.592 0 0 1-.001-.915h.003v-.873h-.002V3.89a2.881 2.881 0 0 1 5.763 0v2.895H5.523v.873h7.392v7.535H.945V7.659h.562v-.873H.058v9.308h13.743V6.786h-3.103zm-3.768 6.65a.665.665 0 0 0 .665-.666v-.374a1.55 1.55 0 0 0-.665-2.95 1.551 1.551 0 0 0-.665 2.95v.374c0 .368.297.665.665.665zm0-3.104a.665.665 0 1 1 0 1.33.665.665 0 0 1 0-1.33z" fill="#FFF" fill-rule="evenodd"/></svg>