<svg width="19" height="20" viewBox="0 0 19 20" xmlns="http://www.w3.org/2000/svg"><title>plan</title><g fill-rule="nonzero" fill="#FFF"><path d="M4.771 3.193V.612a.645.645 0 0 1 1.29 0v2.581a.645.645 0 0 1-1.29 0z"/><path d="M17.674 1.902h-1.935v1.29a1.29 1.29 0 0 1-2.58 0v-1.29H6.707v1.29a1.29 1.29 0 0 1-2.58 0v-1.29H2.191a1.29 1.29 0 0 0-1.29 1.29v2.452h18.065V3.193l-.003-.081a1.292 1.292 0 0 0-1.289-1.21z"/><path d="M13.803 3.193V.612a.645.645 0 0 1 1.29 0v2.581a.645.645 0 0 1-1.29 0zM.9 7.064v11.613c0 .713.578 1.29 1.29 1.29h15.484a1.29 1.29 0 0 0 1.29-1.29V7.064H.9zm9.607 8.446l-1.36 1.361-.004-.004-.003.003-1.36-1.361.003-.003-2.37-2.371 1.361-1.361 2.371 2.37 5.108-5.108 1.361 1.361-5.108 5.107.001.006z"/></g></svg>