<svg width="16" height="22" viewBox="0 0 16 22" xmlns="http://www.w3.org/2000/svg"><title>wan</title><g fill-rule="nonzero" fill="#FFF"><ellipse cx="10.807" cy="3.085" rx="2.273" ry="2.309"/><path d="M4.442 11.644L7.17 6.845a1.863 1.863 0 0 0-.666-2.523l-.787-.462a1.803 1.803 0 0 0-2.484.676L.505 9.335a1.863 1.863 0 0 0 .666 2.523l.788.462c.869.51 1.981.208 2.483-.676zM14.899 10.935h-1.743L10.83 7.899a1.385 1.385 0 0 0-.794-1.437 1.356 1.356 0 0 0-1.8.704L2.702 19.828a1.395 1.395 0 0 0 .693 1.828 1.356 1.356 0 0 0 1.8-.704l2.482-5.678L10.7 20.78a1.352 1.352 0 0 0 1.855.535 1.396 1.396 0 0 0 .527-1.884l-3.985-7.26c-.011-.021-.027-.037-.039-.057l.98-2.242 1.951 2.546a.899.899 0 0 0 .884.337c.067.016-.072 0 0 0l2.026.026a.916.916 0 0 0 .909-.923.916.916 0 0 0-.909-.923z"/></g></svg>