<svg class="icon" width="200" height="200" viewBox="0 0 1024 1024" xmlns="http://www.w3.org/2000/svg"><path fill="#fff" d="M512 21.2c-270.8 0-490.4 219.6-490.4 490.4s219.6 490.6 490.4 490.6 490.4-219.6 490.4-490.4S782.8 21.2 512 21.2zM718 618c-19 1.8-22.2-25.6-35-33.8-5.4 26.6-18.2 45.6-36.4 59.6 17 13 48.2 17.2 46.6 45.4-1.8 34.2-64 43.4-109 40.2-33-2.4-52.6-14.4-71.4-27.2-10.4 3.8-21.2 13.6-32.4 18.2-46 19-146.4 11.4-150.4-29.8-2.8-29.2 30.2-34.4 48-46.6-18.4-13.2-32.2-30.8-36.4-58.4-13.4 3.6-16.4 33-35 32.4-19.8-.6-22.8-41.6-20.8-67.4 3-39.6 31.8-70.4 46.6-90.8-.8-22.4.8-42.6 10.4-54.4.4-57.8 20.4-91.8 49.2-120.6 29.2-29.2 73.6-51.4 118-51.8 53-.6 94.6 25.2 120.6 50.6 23.2 22.8 38.4 47 45.4 83 2.2 10.8.8 24 3.8 37.6 1.2 5.6 7.2 11.6 9 19.4 2.4 10-1.2 22.4 1.2 33.8 1.8 8.6 9.8 15 14.2 20.8 12.8 16.4 29.8 43.4 32.4 68.8 3.8 28-.4 69.4-18.6 71z"/></svg>