<svg width="22" height="22" viewBox="0 0 22 22" xmlns="http://www.w3.org/2000/svg"><title>z</title><g fill-rule="nonzero" fill="#FFF"><path d="M17.888 6.303c.437-.367 1.854-1.121 1.854-1.121s.114-.419-.388-.462c-.238-.021-1.05.169-1.84.375a.332.332 0 0 0-.074-.201l-.208-.248c-.121-.145-.232-.039-.376.081-.144.121-.267.212-.146.356l.155.185c-.294.08-.556.154-.749.209l-.526-.676c-.323-.384-1.304-1.209-1.594-.966-.29.243.352 1.353.675 1.737l.563.624c-.086.176-.204.423-.336.702l-.145-.173c-.121-.144-.232-.039-.376.082s-.267.212-.146.356l.208.248a.334.334 0 0 0 .172.103c-.345.75-.68 1.531-.7 1.772-.044.503.388.463.388.463s.989-1.264 1.426-1.631l.708-.594.706.782c-.09.407-.245 1.153-.189 1.219.076.091.274.267.274.267s.503-.53.724-.729c.141.043.283.029.385-.057.102-.085.14-.221.123-.368.254-.192.816-.565.816-.565s-.139-.225-.216-.316c-.053-.064-.764-.045-1.189-.028l-.664-.853c.171-.141.427-.356.685-.573z"/><path d="M21.783 16.024l-.026-14.605c0-.526-.546-.953-1.072-.952L12.042.48c-.527.001-1.083.434-1.083.96l.024 14.584s-.031.995.16 1.505c.191.509.764.955.764.955l3.144 2.529s.58.454 1.384.454c.804 0 1.385-.525 1.385-.525l2.937-2.461s.423-.295.762-.921c.348-.639.264-1.536.264-1.536zm-1.086 1.103c-.145.433-.572.821-.572.821l-2.447 2.096s-.602.516-1.266.516-1.205-.516-1.205-.516l-2.561-2.039s-.483-.416-.631-.794c-.148-.378-.159-1.215-.159-1.215l.014-13.734c0-.716.418-.936.853-.936l7.224-.011c.715 0 .884.295.884.916l.004 13.718c-.002 0-.005.78-.138 1.178z"/><path d="M16.428 15.941a1.65 1.65 0 1 0 .061 3.3 1.651 1.651 0 0 0-.061-3.3zm.048 2.603a.953.953 0 1 1-.035-1.905.953.953 0 0 1 .035 1.905zM10.568 18.214c-.349-.507-.349-2.379-.349-2.379V5.164l-2.823-2.51a.89.89 0 0 0-1.253.001L.344 8.462a.883.883 0 0 0-.003 1.247s8.593 8.186 9.291 8.819c1.871 1.696 3.26 1.683 3.26 1.683s-1.927-1.423-2.324-1.997z"/></g></svg>