<svg class="icon" width="200" height="200" viewBox="0 0 1024 1024" xmlns="http://www.w3.org/2000/svg"><path fill="#fff" d="M541.215 29.773C476.41 25.508 432.179 40.413 400 53.653c-90.281 37.12-153.252 104.447-182.508 202.06C170.486 412.53 278.4 580.828 382.618 614.221c-37.653 17.377-75.326 34.765-112.978 52.147-98.407 61.394-206.326 183.43-210.76 334.592h56.494c23.64-170.926 139.351-286.894 288.973-332.431 248.893-75.746 498.058 122.465 510.597 332.431h56.489c-11.177-171.172-168.407-355.727-321.567-382.403-.727-1.449-1.449-2.897-2.176-4.346 125.696-40.05 221.026-229.955 154.266-393.268-43.27-105.871-131.333-170.245-260.726-191.2-3.825-.62-29.696 54.455-27.177 54.578 182.185 8.663 318.116 181.888 233.58 371.272-36.685 82.196-113.383 129.239-217.278 145.577-175.268 27.55-324.884-179.61-258.55-349.809 28.616-73.43 89.462-132.439 167.302-156.441 23.94-7.286 39.337-11.454 75.095-10.727 2.54.062 30.807-54.164 27.013-54.42z"/></svg>